HIERARCHY
ROOT Hips
{
	OFFSET 0.000000 0.000000 0.000000
	CHANNELS 6 Xposition Yposition Zposition Zrotation Yrotation Xrotation 
	JOINT LHipJoint
	{
		OFFSET 0.000000 0.000000 0.000000
		CHANNELS 3 Zrotation Yrotation Xrotation
		JOINT LeftUpLeg
		{
			OFFSET 1.363060 -1.794630 0.839290
			CHANNELS 3 Zrotation Yrotation Xrotation
			JOINT LeftLeg
			{
				OFFSET 2.448110 -6.726130 0.000000
				CHANNELS 3 Zrotation Yrotation Xrotation
				JOINT LeftFoot
				{
					OFFSET 2.562200 -7.039590 0.000000
					CHANNELS 3 Zrotation Yrotation Xrotation
					JOINT LeftToeBase
					{
						OFFSET 0.157640 -0.433110 2.322550
						CHANNELS 3 Zrotation Yrotation Xrotation
						End Site
						{
							OFFSET 0.000000 0.000000 0.000000
						}
					}
				}
			}
		}
	}
	JOINT RHipJoint
	{
		OFFSET 0.000000 0.000000 0.000000
		CHANNELS 3 Zrotation Yrotation Xrotation
		JOINT RightUpLeg
		{
			OFFSET -1.305520 -1.794630 0.839290
			CHANNELS 3 Zrotation Yrotation Xrotation
			JOINT RightLeg
			{
				OFFSET -2.542530 -6.985550 0.000000
				CHANNELS 3 Zrotation Yrotation Xrotation
				JOINT RightFoot
				{
					OFFSET -2.568260 -7.056230 0.000000
					CHANNELS 3 Zrotation Yrotation Xrotation
					JOINT RightToeBase
					{
						OFFSET -0.164730 -0.452590 2.363150
						CHANNELS 3 Zrotation Yrotation Xrotation
						End Site
						{
							OFFSET 0.000000 0.000000 0.000000
						}
					}
				}
			}
		}
	}
	JOINT LowerBack
	{
		OFFSET 0.000000 0.000000 0.000000
		CHANNELS 3 Zrotation Yrotation Xrotation
		JOINT Spine
		{
			OFFSET 0.028270 2.035590 -0.193380
			CHANNELS 3 Zrotation Yrotation Xrotation
			JOINT Spine1
			{
				OFFSET 0.056720 2.048850 -0.042750
				CHANNELS 3 Zrotation Yrotation Xrotation
				JOINT Neck
				{
					OFFSET 0.000000 0.000000 0.000000
					CHANNELS 3 Zrotation Yrotation Xrotation
					JOINT Neck1
					{
						OFFSET -0.054170 1.746240 0.172020
						CHANNELS 3 Zrotation Yrotation Xrotation
						JOINT Head
						{
							OFFSET 0.104070 1.761360 -0.123970
							CHANNELS 3 Zrotation Yrotation Xrotation
							End Site
							{
								OFFSET 0.000000 0.000000 0.000000
							}
						}
					}
				}
				JOINT LeftShoulder
				{
					OFFSET 0.000000 0.000000 0.000000
					CHANNELS 3 Zrotation Yrotation Xrotation
					JOINT LeftArm
					{
						OFFSET 3.362410 1.200890 -0.311210
						CHANNELS 3 Zrotation Yrotation Xrotation
						JOINT LeftForeArm
						{
							OFFSET 4.983000 -0.000000 -0.000000
							CHANNELS 3 Zrotation Yrotation Xrotation
							JOINT LeftHand
							{
								OFFSET 3.483560 -0.000000 -0.000000
								CHANNELS 3 Zrotation Yrotation Xrotation
								JOINT LeftFingerBase
								{
									OFFSET 0.000000 0.000000 0.000000
									CHANNELS 3 Zrotation Yrotation Xrotation
									JOINT LeftHandIndex1
									{
										OFFSET 0.715260 -0.000000 -0.000000
										CHANNELS 3 Zrotation Yrotation Xrotation
										End Site
										{
											OFFSET 0.000000 0.000000 0.000000
										}
									}
								}
								JOINT LThumb
								{
									OFFSET 0.000000 0.000000 0.000000
									CHANNELS 3 Zrotation Yrotation Xrotation
									End Site
									{
										OFFSET 0.000000 0.000000 0.000000
									}
								}
							}
						}
					}
				}
				JOINT RightShoulder
				{
					OFFSET 0.000000 0.000000 0.000000
					CHANNELS 3 Zrotation Yrotation Xrotation
					JOINT RightArm
					{
						OFFSET -3.136600 1.374050 -0.404650
						CHANNELS 3 Zrotation Yrotation Xrotation
						JOINT RightForeArm
						{
							OFFSET -5.241900 -0.000000 -0.000000
							CHANNELS 3 Zrotation Yrotation Xrotation
							JOINT RightHand
							{
								OFFSET -3.444170 -0.000000 -0.000000
								CHANNELS 3 Zrotation Yrotation Xrotation
								JOINT RightFingerBase
								{
									OFFSET 0.000000 0.000000 0.000000
									CHANNELS 3 Zrotation Yrotation Xrotation
									JOINT RightHandIndex1
									{
										OFFSET -0.622530 -0.000000 -0.000000
										CHANNELS 3 Zrotation Yrotation Xrotation
										End Site
										{
											OFFSET 0.000000 0.000000 0.000000
										}
									}
								}
								JOINT RThumb
								{
									OFFSET 0.000000 0.000000 0.000000
									CHANNELS 3 Zrotation Yrotation Xrotation
									End Site
									{
										OFFSET 0.000000 0.000000 0.000000
									}
								}
							}
						}
					}
				}
			}
		}
	}
}
MOTION
Frames: 7
Frame Time: 0.008333
-10.357655 16.514824 -1.141629 -15.173479 82.160029 3.902991 -9.255355 -0.516102 2.142666 -7.150546 -3.489428 -51.063215 -1.352477 1.344703 28.069081 1.269398 6.583541 2.860357 1.640600 -0.000000 -29.086300 10.143827 -2.456233 -2.440629 3.018549 -5.744669 -0.191664 1.765907 -1.676492 24.412021 1.066348 11.697545 4.318940 1.946400 -0.000000 -90.463000 -4.607579 0.798041 1.288227 -1.618905 1.057351 -2.495405 -5.406929 0.996110 1.651406 8.071911 -3.662927 -6.153914 -2.775893 -0.220106 0.252252 0.000000 0.000000 0.000000 -9.039965 12.133493 2.155957 -59.510012 11.159819 14.336278 -4.273324 -30.475727 -0.026021 -12.983175 4.941128 -0.567990 -0.090846 -0.080476 -0.000000 0.000000 0.000000 0.000000 0.000000 0.000000 0.000000 11.345819 0.550008 2.258320 39.444971 29.351027 21.049595 1.685310 59.966969 0.029663 10.923834 8.086580 0.802516 -0.087764 -0.221771 -0.000000 0.000000 0.000000 0.000000 0.000000 0.000000 0.000000 
-10.141539 16.522256 -1.149955 -11.309256 82.029723 7.539682 -9.343474 -0.520880 2.007832 -7.754947 -3.404762 -50.686665 -1.336984 1.449051 29.662207 1.318334 6.792872 1.917847 1.550099 -0.000000 -27.848500 10.298687 -2.532875 -2.524358 1.938136 -6.521442 -1.432686 1.449349 -1.993883 27.475039 1.007436 12.437222 6.898855 2.630200 -0.000000 -92.483200 -5.317208 0.721562 1.394289 -1.764363 1.017849 -2.492430 -5.466210 0.954940 1.601411 8.232356 -3.605904 -6.096045 -2.817500 -0.223521 0.263212 0.000000 0.000000 0.000000 -8.891922 11.855359 2.182812 -59.649360 10.744351 13.761681 -4.316203 -29.912032 -0.025459 -12.874230 4.990811 -0.568275 -0.093185 -0.077470 -0.000000 0.000000 0.000000 0.000000 0.000000 0.000000 0.000000 11.651611 0.558360 2.236026 40.207662 28.680142 21.233294 1.733629 59.477446 0.029518 10.867209 8.085732 0.797638 -0.082903 -0.218243 -0.000000 0.000000 0.000000 0.000000 0.000000 0.000000 0.000000 
-9.928314 16.532613 -1.158940 -7.836818 81.920139 10.800791 -9.407493 -0.527806 1.864906 -8.405032 -3.271908 -50.219731 -1.344317 1.523004 31.053017 1.363752 6.975298 0.770983 1.424900 -0.000000 -27.016900 10.474489 -2.591217 -2.595465 0.917309 -7.311176 -2.803076 1.114232 -2.285108 30.594696 0.879207 12.877572 9.750227 3.388900 0.000001 -93.798000 -5.954449 0.630768 1.502283 -1.895016 0.960056 -2.487918 -5.523097 0.895572 1.551290 8.361639 -3.541655 -6.023708 -2.857583 -0.226983 0.278065 0.000000 0.000000 0.000000 -8.738672 11.540539 2.210725 -59.759795 10.300924 13.313609 -4.352615 -29.439534 -0.024857 -12.776298 5.040549 -0.568960 -0.095135 -0.074310 -0.000000 0.000000 0.000000 0.000000 0.000000 0.000000 0.000000 11.917485 0.557338 2.207614 41.014003 28.003496 21.464299 1.784556 58.932524 0.029302 10.845835 8.090291 0.795755 -0.078494 -0.214019 -0.000000 0.000000 0.000000 0.000000 0.000000 0.000000 0.000000 
-9.718004 16.545711 -1.168351 -4.637501 81.832758 13.807897 -9.445800 -0.531558 1.721291 -9.093421 -3.118334 -49.648606 -1.371232 1.565194 32.210418 1.410689 7.153656 -0.521691 1.273800 0.000000 -26.557600 10.666117 -2.619223 -2.654841 -0.040903 -8.097863 -4.281743 0.776144 -2.543737 33.739757 0.683357 12.951693 12.795628 4.146199 0.000000 -94.137200 -6.529634 0.525001 1.607577 -2.012960 0.884016 -2.480613 -5.577697 0.818183 1.508441 8.465868 -3.480708 -5.944134 -2.896155 -0.230394 0.294814 0.000000 0.000000 0.000000 -8.574132 11.220776 2.237771 -59.837029 9.801264 13.018061 -4.382557 -29.062436 -0.024187 -12.684596 5.081144 -0.568842 -0.096708 -0.071000 -0.000000 0.000000 0.000000 0.000000 0.000000 0.000000 0.000000 12.155074 0.536139 2.172278 41.844205 27.343906 21.747008 1.836816 58.336312 0.028996 10.859427 8.095971 0.796570 -0.074624 -0.209087 -0.000000 0.000000 0.000000 0.000000 0.000000 0.000000 0.000000 
-9.510445 16.561454 -1.179035 -1.937718 81.750724 16.338723 -9.459526 -0.523908 1.584998 -9.767450 -2.942337 -48.984471 -1.412243 1.579763 33.131237 1.460733 7.325302 -1.899276 1.101000 0.000000 -26.416200 10.862133 -2.606135 -2.700167 -0.878486 -8.833250 -5.833859 0.451480 -2.762674 36.868409 0.428050 12.576503 15.920875 4.782201 0.000000 -93.250300 -7.002890 0.413535 1.704006 -2.110516 0.797136 -2.472682 -5.630655 0.730097 1.469546 8.537522 -3.418049 -5.855204 -2.932393 -0.233747 0.314523 0.000000 0.000000 0.000000 -8.418620 10.893489 2.261790 -59.875771 9.275470 12.860289 -4.403833 -28.816415 -0.023473 -12.597860 5.109338 -0.567523 -0.097845 -0.067696 -0.000000 0.000000 0.000000 0.000000 0.000000 0.000000 0.000000 12.349466 0.505700 2.131385 42.694705 26.691054 22.070810 1.890345 57.694889 0.028608 10.910396 8.096782 0.799580 -0.071286 -0.203432 -0.000000 0.000000 0.000000 0.000000 0.000000 0.000000 0.000000 
-9.305526 16.579951 -1.191217 0.279997 81.671840 18.409279 -9.454734 -0.502322 1.461969 -10.403481 -2.761464 -48.223717 -1.462596 1.569191 33.806917 1.515097 7.496919 -3.290676 0.915100 -0.000000 -26.519100 11.051420 -2.548079 -2.735402 -1.582459 -9.504632 -7.433891 0.157049 -2.943167 39.952892 0.127895 11.716079 18.968717 5.166300 0.000000 -91.042100 -7.373576 0.298558 1.790970 -2.187267 0.701765 -2.463653 -5.682061 0.633715 1.437189 8.579408 -3.359026 -5.762094 -2.966203 -0.236966 0.335868 0.000000 0.000000 0.000000 -8.277561 10.576948 2.281900 -59.871640 8.713905 12.840915 -4.416308 -28.711655 -0.022704 -12.512733 5.117603 -0.564100 -0.098582 -0.064430 -0.000000 0.000000 0.000000 0.000000 0.000000 0.000000 0.000000 12.504902 0.463082 2.085406 43.552264 26.053018 22.428554 1.944437 57.013620 0.028128 10.993392 8.088577 0.804087 -0.068430 -0.197103 -0.000000 0.000000 0.000000 0.000000 0.000000 0.000000 0.000000 
-9.103179 16.601417 -1.204591 2.172140 81.602641 20.171196 -9.435827 -0.468249 1.355269 -10.999734 -2.604512 -47.352851 -1.517983 1.533892 34.226223 1.574269 7.681180 -4.623411 0.726700 0.000000 -26.780000 11.228394 -2.448522 -2.767138 -2.170241 -10.118707 -9.061191 -0.093887 -3.094531 42.970140 -0.198802 10.374880 21.754206 5.189600 0.000000 -87.671800 -7.662860 0.177923 1.872119 -2.247164 0.596949 -2.452978 -5.732247 0.528086 1.410685 8.599599 -3.299959 -5.666706 -2.998009 -0.240044 0.358169 0.000000 0.000000 0.000000 -8.145773 10.278810 2.299792 -59.821147 8.113444 12.949152 -4.420956 -28.754533 -0.021872 -12.426400 5.100846 -0.557972 -0.099009 -0.061193 -0.000000 0.000000 0.000000 0.000000 0.000000 0.000000 0.000000 12.631010 0.413349 2.034286 44.411776 25.416224 22.796854 1.998067 56.306247 0.027557 11.107097 8.063376 0.809092 -0.066075 -0.190177 0.000000 0.000000 0.000000 0.000000 0.000000 0.000000 0.000000 
